<?xml version="1.0" encoding="utf-8"?>
<!-- Generator: Adobe Illustrator 21.0.2, SVG Export Plug-In . SVG Version: 6.00 Build 0)  -->
<svg version="1.1" id="Layer_1" xmlns="http://www.w3.org/2000/svg" xmlns:xlink="http://www.w3.org/1999/xlink" x="0px" y="0px"
	 viewBox="0 0 397 206" style="enable-background:new 0 0 397 206;" xml:space="preserve">
<style type="text/css">
	.st0{fill:none;stroke:#000000;stroke-width:0.5;stroke-miterlimit:10;}
	.st1{fill:#FABF48;}
	.st2{font-family:'ChocolateFlavor';}
	.st3{font-size:236.5606px;}
</style>
<text transform="matrix(0.9997 -2.562000e-02 2.562000e-02 0.9997 14.6509 164.1538)" class="st1 st2 st3">kmpng</text>
<path class="st1" d="M1.5,73.3L9,72.8c2.5-0.2,5-0.3,7.5-0.5c5-0.5,10-0.9,14.9-1.5c9.9-1,19.8-2.7,29.6-4.4l7.3-1.4l3.7-0.7
	l3.6-0.8c2.4-0.5,4.9-1,7.3-1.6l7.2-1.8c9.6-2.4,19.2-5.1,28.6-8.1C137.6,46.2,156,39,174,31c9-4.1,17.8-8.4,26.4-13
	c4.3-2.4,8.6-4.7,12.7-7.3c2.1-1.3,4.1-2.6,6.1-3.9l3-2l1.5-1l0.7-0.5l0.6-0.4c3.8-2.8,8.9-2.5,12.3,0.3l0.9,0.7
	c1.3,1.1,2.9,2.3,4.4,3.5l4.5,3.5c3,2.3,6.1,4.6,9.2,6.8c3.1,2.3,6.2,4.5,9.3,6.7l9.3,6.7c6.2,4.4,12.5,8.9,18.7,13.2
	c6.3,4.4,12.6,8.7,18.9,12.8c12.8,8.3,25.8,16,39.5,22.7c13.6,6.6,27.8,12.1,43.3,15l0,0c0.7,0.1,1.1,0.8,1,1.4
	c-0.1,0.5-0.5,0.9-1,1c-7.9,1.6-16.2,1.8-24.4,1.2c-4.1-0.3-8.1-0.9-12.2-1.5c-4-0.7-8-1.6-12-2.6c-15.8-4.1-31-10.3-45.4-17.6
	c-3.6-1.8-7.2-3.7-10.7-5.7c-3.5-2-7-4-10.4-6.1c-6.9-4.2-13.5-8.7-20-13.5c-3.2-2.4-6.4-4.8-9.6-7.3c-3.1-2.5-6.2-5.1-9.3-7.7
	c-3-2.6-6-5.3-9-8c-1.5-1.3-3-2.7-4.4-4.1c-1.5-1.4-2.9-2.7-4.5-4.3l13.2,1l-1,0.6l-0.9,0.5l-1.8,1l-3.5,1.9
	c-2.3,1.2-4.6,2.4-6.9,3.5c-4.6,2.3-9.3,4.5-13.9,6.7c-9.3,4.3-18.8,8.2-28.3,11.9c-9.6,3.6-19.2,7-29,9.9c-9.8,3-19.6,5.5-29.5,7.9
	c-19.8,4.7-39.9,7.8-60.1,9.8c-10.1,0.8-20.2,1.5-30.3,1.6c-10.1,0.3-20.2-0.1-30.3-0.5c-0.7,0-1.2-0.6-1.1-1.3
	C0.4,73.8,0.9,73.3,1.5,73.3L1.5,73.3z"/>
</svg>
